<?xml version="1.0" encoding="utf-8"?>
<?xml-stylesheet type="text/xsl" href="rss1.xsl"?>
<rss version="2.0" xmlns:atom="http://www.w3.org/2005/Atom" xmlns:content="http://purl.org/rss/1.0/modules/content/" xmlns:dc="http://purl.org/dc/elements/1.1/" xmlns:media="http://search.yahoo.com/mrss/">
<channel>
 <title>Getty</title>
 <link>http://www.gettyimg.com/</link>
 <atom:link href="http://www.gettyimg.com/" rel="self" type="application/rss+xml" />

 
                <item>
                <title><![CDATA[【PRORES SD】OBIE TRICE feat. AKON "SNITCH" (Closed Captioned LINE 21) [PCM24 ProRes 486i]]]></title>
                <link><![CDATA[https://sharemania.us/threads/obie-trice-feat-akon-snitch-closed-captioned-line-21-pcm24-prores-486i.221188/]]></link>
                <description><![CDATA[<article>
<blockquote class="messageText SelectQuoteContainer ugc baseHtml">
<div style="text-align: center"><span style="font-size: 15px"><span style="color: rgb(0, 0, 255)"><br>
</span></span><br>
<span style="font-size: 22px"><span style="color: rgb(0, 0, 255)"><b>OBIE TRICE feat. AKON "SNITCH" (Closed Captioned LINE 21) [PCM24 ProRes 486i] </b></span></span><br>
<span style="font-size: 15px"><span style="color: rgb(0, 0, 255)"><br>
<b><img src="https://i.imgur.com/WbceMUe.jpg" class="bbCodeImage LbImage" alt="[​IMG]" data-url="https://i.imgur.com/WbceMUe.jpg" style=""></b><br>
<br>
<b><img src="https://i.imgur.com/0awO4A4.png" class="bbCodeImage LbImage" alt="[​IMG]" data-url="https://i.imgur.com/0awO4A4.png" style=""></b><br>
<br>
<b><img src="https://i.imgur.com/0EhynXO.jpg" class="bbCodeImage LbImage" alt="[​IMG]" data-url="https://i.imgur.com/0EhynXO.jpg" style=""></b><br>
<br>
<div class="ToggleTriggerAnchor bbCodeSpoilerContainer">
<button type="button" class="button bbCodeSpoilerButton ToggleTrigger Tooltip JsOnly" data-target="> .SpoilerTarget"><span>Spoiler</span></button>
<div class="SpoilerTarget bbCodeSpoilerText">General<br>
Complete name : OBIE TRICE feat. AKON "SNITCH" CC.mov<br>
Format : QuickTime<br>
Format/Info : Original Apple specifications<br>
File size : 2.79 GiB<br>
Duration : 6mn 29s<br>
Overall bit rate mode : Variable<br>
Overall bit rate : 61.5 Mbps<br>
Encoded date : UTC 2022-05-08 22:56:47<br>
Tagged date : UTC 2022-05-08 23:03:18<br>
Writing library : Apple QuickTime<br>
Media/UUID : ADD3B5A4-0761-4A11-9967-4BCD53D003EA<br>
<br>
Video<br>
ID : 1<br>
Format : ProRes<br>
Format version : Version 0<br>
Format profile : High<br>
Codec ID : apch<br>
Duration : 6mn 29s<br>
Source duration : 6mn 30s<br>
Source_Duration_FirstFrame : 96ms<br>
Bit rate mode : Variable<br>
Bit rate : 59.2 Mbps<br>
Width : 720 pixels<br>
Height : 486 pixels<br>
Display aspect ratio : 3:2<br>
Frame rate mode : Constant<br>
Frame rate : 29.970 fps<br>
Standard : NTSC<br>
Color space : YUV<br>
Chroma subsampling : 4:2:2<br>
Scan type : Interlaced<br>
Scan order : Top Field First<br>
Stored scan order : Bottom Field First<br>
Bits/(Pixel*Frame) : 5.641<br>
Stream size : 2.69 GiB (96%)<br>
Source stream size : 2.69 GiB (96%)<br>
Writing library : AJA Kona Hardware<br>
Language : English<br>
Encoded date : UTC 2022-05-08 23:03:18<br>
Tagged date : UTC 2022-05-08 23:03:18<br>
Color primaries : BT.601 NTSC<br>
Matrix coefficients : BT.601<br>
<br>
Audio<br>
ID : 5<br>
Format : PCM<br>
Format settings, Endianness : Little<br>
Format settings, Sign : Unsigned<br>
Codec ID : in24<br>
Duration : 6mn 29s<br>
Source duration : 6mn 29s<br>
Bit rate mode : Constant<br>
Bit rate : 2 304 Kbps<br>
Channel(s) : 2 channels<br>
Channel positions : Front: L R<br>
Sampling rate : 48.0 KHz<br>
Bit depth : 24 bits<br>
Stream size : 107 MiB (4%)<br>
Source stream size : 107 MiB (4%)<br>
Language : English<br>
Encoded date : UTC 2022-05-08 23:03:18<br>
Tagged date : UTC 2022-05-08 23:03:18<br>
<br>
Other<br>
ID : 6<br>
Type : Time code<br>
Format : QuickTime TC<br>
Duration : 6mn 29s<br>
Time code of first frame : 00:00:02;07<br>
Time code settings : Striped<br>
Title : OBIE TRICE feat. AKON "SNITCH" CC<br>
Language : English<br>
Encoded date : UTC 2022-05-08 23:03:18<br>
Tagged date : UTC 2022-05-08 23:03:18</div>
</div><br>
<br>
<br>
<br>
</span></span><br>
<span style="color: rgb(0, 0, 255)">
<div class="bbCodeBlock bbCodeVfcHH HiddenContent">
<div class="attribution type">Hidden Content:</div>
<blockquote>You must reply before you can see the hidden data contained here.</blockquote>
</div></span>​</div>
<div class="messageTextEndMarker">&nbsp;</div>
</blockquote>
</article>]]></description>
                <author><![CDATA[dgol22]]></author>
                </item>

                </channel></rss>